<svg width="1088" height="239" viewBox="0 0 1088 239" fill="none" xmlns="http://www.w3.org/2000/svg">
<path d="M0.109375 5.81348C11.9738 7.70119 23.8519 9.48632 35.7438 11.1688V99.3991C48.4997 99.7821 61.2626 100.151 74.0323 100.507C74.0323 72.4102 74.0323 44.3065 74.0323 16.1959C85.9241 17.6733 97.8365 19.0412 109.77 20.2997C109.77 86.7117 109.77 153.144 109.77 219.597C97.8502 220.705 85.9378 221.923 74.0323 223.25V130.157C61.2489 130.239 48.486 130.334 35.7438 130.444V228.051C23.8519 229.638 11.9738 231.355 0.109375 233.201V5.81348Z" fill="#2970FF"/>
<path d="M182.024 216.851C164.639 217.959 151.409 214.943 142.295 207.29C133.181 199.636 128.613 187.51 128.613 171.649C128.613 121.898 128.613 72.1469 128.613 22.396C140.546 23.5861 152.493 24.6804 164.453 25.679C164.453 74.6228 164.453 123.567 164.453 172.511C164.453 179.022 165.976 183.652 169.021 186.402C172.272 189.137 176.832 190.369 182.703 190.095C188.587 189.849 192.99 188.248 196.076 185.314C199.162 182.38 200.972 177.743 200.972 171.423C200.972 123.765 200.972 76.107 200.972 28.449C212.494 29.2492 224.036 29.9263 235.558 30.5009C235.558 76.5037 235.558 122.513 235.558 168.53C235.558 183.18 230.99 194.548 221.835 202.919C212.679 211.291 199.429 215.764 182.024 216.851Z" fill="#2970FF"/>
<path d="M254.615 31.4644C272.885 32.2577 291.169 32.8391 309.466 33.2084C327.324 33.5778 340.739 37.3122 349.668 44.6989C358.597 52.0856 363.062 62.8169 363.062 77.0158C363.062 106.604 363.062 136.185 363.062 165.759C363.062 179.958 358.59 190.73 349.647 198.076C340.718 205.442 327.324 209.177 309.466 209.443C291.169 209.717 272.871 210.161 254.574 210.777C254.602 150.999 254.615 91.2284 254.615 31.4644ZM308.725 184.267C314.61 184.267 319.074 182.899 322.119 180.163C325.39 177.455 327.016 173.105 327.036 167.072C327.036 136.623 327.036 106.166 327.036 75.7026C327.036 69.6701 325.39 65.2996 322.14 62.5912C318.889 59.8827 314.61 58.4874 308.746 58.4874L290.435 58.1591V184.493L308.725 184.267Z" fill="#2970FF"/>
<path d="M380.732 33.5162C399.015 33.311 417.305 32.887 435.603 32.2441C453.461 31.5875 466.834 34.6653 475.764 41.8263C484.693 48.9873 489.137 60.0058 489.137 74.7793C489.137 105.53 489.137 136.308 489.137 167.113C489.137 181.914 484.679 192.96 475.764 200.251C466.855 207.535 453.461 210.756 435.603 210.264C417.319 209.772 399.022 209.45 380.711 209.3L380.732 33.5162ZM435.006 184.718C440.89 184.828 445.355 183.549 448.4 180.881C451.664 178.145 453.297 173.741 453.297 167.667C453.297 136.602 453.297 105.544 453.297 74.492C453.297 68.3638 451.664 63.9796 448.4 61.3395C445.355 58.6926 440.89 57.482 435.027 57.6257L416.736 58.0565V184.472C422.826 184.554 428.916 184.718 435.006 184.718Z" fill="#2970FF"/>
<path d="M506.871 28.5898C518.832 27.7827 530.785 26.8868 542.732 25.9019C542.732 79.9754 542.732 134.042 542.732 188.102C562.387 189.005 582.022 190.092 601.636 191.364V219.885C570.095 216.91 538.514 214.674 506.871 212.991C506.885 151.517 506.885 90.05 506.871 28.5898Z" fill="#2970FF"/>
<path d="M612.309 19.049C644.816 15.3556 677.261 10.9441 709.645 5.81445V38.2955C689.071 40.6209 668.538 42.7549 648.046 44.6973V100.221L697.012 98.7845V130.712C680.718 130.493 664.395 130.335 648.046 130.24V194.771C668.62 196.481 689.153 198.464 709.645 200.721V233.202C677.261 228.155 644.836 224.133 612.329 220.891C612.329 153.604 612.322 86.3228 612.309 19.049Z" fill="#2970FF"/>
<path d="M934.959 0.5H786.686C774.671 0.5 763.147 5.25592 754.651 13.7215C746.154 22.1871 741.381 33.6689 741.381 45.6411V193.375C741.381 205.348 746.154 216.829 754.651 225.295C763.147 233.761 774.671 238.517 786.686 238.517H934.959C946.975 238.517 958.499 233.761 966.995 225.295C975.492 216.829 980.265 205.348 980.265 193.375V45.6411C980.265 33.6689 975.492 22.1871 966.995 13.7215C958.499 5.25592 946.975 0.5 934.959 0.5V0.5Z" fill="#246BFD"/>
<path d="M1062.48 43.0546C1060.39 43.4996 1058.42 44.3352 1056.65 45.5169L1021.33 66.9384C1015.79 70.3248 1011.25 75.1009 1008.15 80.7885C1004.97 86.5968 1003.3 93.1097 1003.31 99.7272V139.369C1003.31 146.002 1004.98 152.529 1008.17 158.349C1011.28 164.052 1015.85 168.836 1021.41 172.22L1057 193.641C1059.3 195.06 1061.87 195.989 1064.56 196.37C1067.22 196.741 1069.94 196.552 1072.53 195.816C1075.14 195.063 1077.58 193.793 1079.69 192.082C1081.83 190.329 1083.61 188.175 1084.92 185.741C1086.71 182.408 1087.64 178.687 1087.64 174.908V63.9016C1087.63 60.6851 1086.93 57.5078 1085.58 54.5861C1084.25 51.7141 1082.29 49.171 1079.86 47.1378C1077.47 45.1487 1074.65 43.7433 1071.62 43.0341C1068.61 42.3157 1065.48 42.3228 1062.48 43.0546V43.0546Z" fill="#246BFD"/>
<path d="M828.211 196.556C817.145 196.556 808.681 193.348 802.819 186.932C796.957 180.517 794.025 171.461 794.025 159.766V82.8207C794.025 71.0977 796.957 62.0353 802.819 55.6335C808.681 49.2317 817.145 46.0239 828.211 46.0103C839.194 46.0103 847.651 49.218 853.582 55.6335C859.513 62.049 862.444 71.1114 862.375 82.8207V159.766C862.375 171.461 859.444 180.517 853.582 186.932C847.719 193.348 839.262 196.556 828.211 196.556ZM828.211 175.647C835.967 175.647 839.853 170.859 839.866 161.284V81.3434C839.866 71.768 835.981 66.9803 828.211 66.9803C820.44 66.9803 816.548 71.768 816.534 81.3434V161.223C816.534 170.853 820.426 175.661 828.211 175.647Z" fill="white"/>
<path d="M905.044 82.8201H881.506V66.5078C886.673 66.6563 891.837 66.0901 896.848 64.8253C900.468 63.9523 903.762 62.0656 906.341 59.3878C909.069 56.0292 911.162 52.2056 912.52 48.1025H927.656V194.462H905.044V82.8201Z" fill="white"/>
</svg>
